<svg xmlns="http://www.w3.org/2000/svg" xmlns:xlink="http://www.w3.org/1999/xlink" version="1.1" style="enable-background:new 0 0 474.9 474.9;" xml:space="preserve" width="476.1164021324207" height="257.00529018032705"><rect id="backgroundrect" width="100%" height="100%" x="0" y="0" fill="none" stroke="none"/>
















<g class="currentLayer" style=""><title>Layer 1</title><g id="svg_1" class="">
	<g id="svg_2">
		<g id="svg_3">
			<rect x="232.3000030517578" y="206.0533218383789" width="10.100000381469727" height="19.899999618530273" id="svg_4"/>
			<rect x="232.3000030517578" y="26.053321838378906" width="10.100000381469727" height="19.899999618530273" id="svg_5"/>
			<rect x="232.3000030517578" y="56.053321838378906" width="10.100000381469727" height="19.899999618530273" id="svg_6"/>
			<rect x="232.3000030517578" y="86.0533218383789" width="10.100000381469727" height="19.899999618530273" id="svg_7"/>
			<rect x="232.3000030517578" y="116.0533218383789" width="10.100000381469727" height="19.899999618530273" id="svg_8"/>
			<rect x="232.3000030517578" y="146.0533218383789" width="10.100000381469727" height="19.899999618530273" id="svg_9"/>
			<rect x="232.3000030517578" y="176.0533218383789" width="10.100000381469727" height="19.899999618530273" id="svg_10"/>
			<path d="M242.5,0.9553018188476017 h-10.1 H0 v4.9 v250.1 h232.4 h10.1 h232.4 v-255 H242.5 zM154.9,245.8553018188477 H10 v-234.8 h144.9 V245.8553018188477 zM310.1,245.8553018188477 h-67.7 v-9.8 h-10.1 v9.8 H165 v-234.8 h67.3 v4.9 h10.1 v-4.9 h67.7 V245.8553018188477 zM464.8,245.8553018188477 H319.9 v-234.8 h144.9 V245.8553018188477 z" id="svg_11"/>
		</g>
	</g>
</g><g id="svg_12">
</g><g id="svg_13">
</g><g id="svg_14">
</g><g id="svg_15">
</g><g id="svg_16">
</g><g id="svg_17">
</g><g id="svg_18">
</g><g id="svg_19">
</g><g id="svg_20">
</g><g id="svg_21">
</g><g id="svg_22">
</g><g id="svg_23">
</g><g id="svg_24">
</g><g id="svg_25">
</g><g id="svg_26">
</g></g></svg>