<svg xmlns:x="http://ns.adobe.com/Extensibility/1.0/" xmlns:i="http://ns.adobe.com/AdobeIllustrator/10.0/" xmlns:graph="http://ns.adobe.com/Graphs/1.0/" xmlns="http://www.w3.org/2000/svg" xmlns:xlink="http://www.w3.org/1999/xlink" version="1.1" enable-background="new 0 0 750 750" xml:space="preserve" width="425" height="209.76536560058594" style=""><rect id="backgroundrect" width="100%" height="100%" x="0" y="0" fill="none" stroke="none"/>
<metadata>
	<sfw xmlns="http://ns.adobe.com/SaveForWeb/1.0/">
		<slices/>
		<sliceSourceBounds bottomLeftOrigin="true" height="2856.041" width="3209" x="0" y="-1503.987"/>
	</sfw>
</metadata>






<g class="currentLayer" style=""><title>Layer 1</title><g id="FILL-BACKGROUND" class="">
	<rect fill="#FFFFFF" width="423.74298095703125" height="213.6906280517578" id="svg_1" y="-2.2381515502929688" x="0.0000019073486328125"/>
</g><g id="N-DIMENSIONS" class="">
</g><g id="N-TEXT" class="">
</g><g id="AG-SPORTS" class="" fill="#ffffff" fill-opacity="1" opacity="1" stroke="#242424" stroke-opacity="1">
	<g id="POLYLINE_25_" fill="#ffffff" fill-opacity="1" opacity="1" stroke="#242424" stroke-opacity="1">
		
			<rect x="2.0705082416534424" y="1.6285781860351562" fill="#ffffff" stroke="#242424" stroke-width="3" stroke-linecap="round" stroke-linejoin="round" stroke-miterlimit="10" width="419.60198974609375" height="207.07696533203125" id="svg_2" fill-opacity="1" opacity="1" stroke-opacity="1"/>
	</g>
	<g id="POLYLINE_24_" fill="#ffffff" fill-opacity="1" opacity="1" stroke="#242424" stroke-opacity="1">
		
			<line fill="none" stroke="#242424" stroke-width="3" stroke-linecap="round" stroke-linejoin="round" stroke-miterlimit="10" x1="141.93751525878906" y1="208.70651245117188" x2="141.93751525878906" y2="1.6285781860351562" id="svg_3" opacity="1"/>
	</g>
	<g id="POLYLINE_23_" fill="#ffffff" fill-opacity="1" opacity="1" stroke="#242424" stroke-opacity="1">
		
			<line fill="none" stroke="#242424" stroke-width="3" stroke-linecap="round" stroke-linejoin="round" stroke-miterlimit="10" x1="281.8055114746094" y1="208.70651245117188" x2="281.8055114746094" y2="1.6285781860351562" id="svg_4" opacity="1"/>
	</g>
	<g id="POLYLINE_22_" fill="#ffffff" fill-opacity="1" opacity="1" stroke="#242424" stroke-opacity="1">
		
			<polygon fill="#ffffff" stroke="#242424" stroke-width="3" stroke-linecap="round" stroke-linejoin="round" stroke-miterlimit="10" points="213.09849101305008,231.4019775390625 213.09849101305008,231.3822479248047 213.09751445055008,231.36151123046875 213.09751445055008,231.34078979492188 213.09550029039383,231.32106018066406 213.0944932103157,231.30032348632812 213.09250956773758,231.28057861328125 213.0894883275032,231.25985717773438 213.08750468492508,231.2401123046875 213.08451396226883,231.2203826904297 213.08051615953445,231.19964599609375 213.07648783922195,231.17991638183594 213.07249003648758,231.16017150878906 213.0684922337532,231.14044189453125 213.0634873509407,231.12066650390625 213.05851298570633,231.1009521484375 213.0525010228157,231.0812225341797 213.0474961400032,231.06146240234375 213.04050761461258,231.04171752929688 213.03449565172195,231.02294921875 213.02750712633133,231.0032501220703 213.02048808336258,230.98446655273438 213.01249247789383,230.96572875976562 213.0055039525032,230.94696044921875 212.99650126695633,230.92822265625 212.98850566148758,230.9094696044922 212.9795029759407,230.89071655273438 212.97050029039383,230.87295532226562 212.96049052476883,230.85516357421875 212.95051127672195,230.83741760253906 212.94050151109695,230.81964111328125 212.93049174547195,230.80186462402344 212.91950541734695,230.78411865234375 212.90848857164383,230.767333984375 212.89750224351883,230.7505645751953 212.8855088353157,230.7337646484375 212.87351542711258,230.71697998046875 212.86149150133133,230.7001953125 212.84849101305008,230.68443298339844 212.83649760484695,230.66864013671875 212.8234971165657,230.65283203125 212.80948954820633,230.63702392578125 212.79648905992508,230.62225341796875 212.78251200914383,230.60646057128906 212.76850444078445,230.59164428710938 212.75348979234695,230.5778350830078 212.73850566148758,230.5630340576172 212.7244980931282,230.5491943359375 212.7085068821907,230.53536987304688 212.6934922337532,230.52154541015625 212.6775010228157,230.50872802734375 212.6615098118782,230.49588012695312 212.64548808336258,230.48306274414062 212.62949687242508,230.47021484375 212.61249858140945,230.4583740234375 212.59650737047195,230.4465789794922 212.57950907945633,230.4347381591797 212.5625107884407,230.42384338378906 212.54450541734695,230.41299438476562 212.52750712633133,230.40213012695312 212.50950175523758,230.39126586914062 212.49149638414383,230.3814239501953 212.47349101305008,230.37155151367188 212.45551615953445,230.36268615722656 212.43650370836258,230.35379028320312 212.41849833726883,230.34487915039062 212.39951640367508,230.33599853515625 212.3805039525032,230.328125 212.36149150133133,230.32022094726562 212.34250956773758,230.31228637695312 212.3234971165657,230.30538940429688 212.30350810289383,230.29849243164062 212.28449565172195,230.29156494140625 212.26450663805008,230.28567504882812 212.24448710680008,230.27975463867188 212.22550517320633,230.2748260498047 212.20551615953445,230.26889038085938 212.18549662828445,230.26394653320312 212.16450053453445,230.260009765625 212.14451152086258,230.25607299804688 212.12449198961258,230.25210571289062 212.1045029759407,230.24818420410156 212.0835068821907,230.2451934814453 212.0634873509407,230.2422637939453 212.0424912571907,230.2402801513672 212.02250224351883,230.23829650878906 212.00150614976883,230.23629760742188 211.98148661851883,230.2353515625 211.96049052476883,230.23434448242188 211.94050151109695,230.2333526611328 211.91950541734695,230.2333526611328 211.89850932359695,230.2333526611328 211.87848979234695,230.23434448242188 211.85749369859695,230.23434448242188 211.83750468492508,230.23629760742188 211.81650859117508,230.2373046875 211.79648905992508,230.2393035888672 211.77549296617508,230.24124145507812 211.7555039525032,230.24420166015625 211.7345078587532,230.24720764160156 211.7144883275032,230.2501220703125 211.69449931383133,230.25408935546875 211.67350322008133,230.25802612304688 211.65351420640945,230.261962890625 211.63349467515945,230.26690673828125 211.61350566148758,230.2718505859375 211.59348613023758,230.2768096923828 211.57450419664383,230.28269958496094 211.55451518297195,230.28863525390625 211.53449565172195,230.29554748535156 211.5155137181282,230.30145263671875 211.4954941868782,230.308349609375 211.47651225328445,230.31629943847656 211.45749980211258,230.32415771484375 211.4384873509407,230.33206176757812 211.41950541734695,230.3399658203125 211.4015000462532,230.34884643554688 211.38248759508133,230.3577423095703 211.3645127415657,230.3666229248047 211.34650737047195,230.37646484375 211.3285019993782,230.3863525390625 211.31049662828445,230.397216796875 211.2924912571907,230.40707397460938 211.27549296617508,230.41793823242188 211.25849467515945,230.42977905273438 211.24149638414383,230.44061279296875 211.2244980931282,230.45249938964844 211.20749980211258,230.46434020996094 211.19150859117508,230.47714233398438 211.17451030015945,230.48898315429688 211.15848857164383,230.5018310546875 211.14350444078445,230.51565551757812 211.12751322984695,230.52847290039062 211.11249858140945,230.54226684570312 211.09751445055008,230.55609130859375 211.08249980211258,230.56991577148438 211.0684922337532,230.584716796875 211.05350810289383,230.5995635986328 211.03950053453445,230.6143341064453 211.02549296617508,230.629150390625 211.01249247789383,230.64492797851562 210.99949198961258,230.66073608398438 210.98649150133133,230.67652893066406 210.97349101305008,230.6923370361328 210.96149760484695,230.70907592773438 210.94950419664383,230.72491455078125 210.9375107884407,230.74166870117188 210.92548686265945,230.7584686279297 210.91450053453445,230.77621459960938 210.90351420640945,230.79299926757812 210.89350444078445,230.81076049804688 210.88248759508133,230.8285369873047 210.87250834703445,230.84628295898438 210.86350566148758,230.8640899658203 210.85349589586258,230.8818359375 210.8444932103157,230.9005889892578 210.83649760484695,230.91835021972656 210.82749491930008,230.93711853027344 210.81949931383133,230.9558563232422 210.8125107884407,230.974609375 210.80451518297195,230.99432373046875 210.7974961400032,231.01309204101562 210.7915146946907,231.0328369140625 210.78449565172195,231.05160522460938 210.77851420640945,231.0713348388672 210.77350932359695,231.091064453125 210.76749736070633,231.11080932617188 210.76249247789383,231.13055419921875 210.75849467515945,231.1503143310547 210.75348979234695,231.17005920410156 210.74949198961258,231.1897735595703 210.74650126695633,231.20953369140625 210.74351054430008,231.23025512695312 210.7404893040657,231.24998474121094 210.73749858140945,231.27069091796875 210.73551493883133,231.2904815673828 210.73350077867508,231.31118774414062 210.73249369859695,231.33090209960938 210.73148661851883,231.3516387939453 210.73051005601883,231.37139892578125 210.73051005601883,231.39212036132812 210.73051005601883,231.412841796875 210.73051005601883,231.43258666992188 210.73148661851883,231.45330810546875 210.73249369859695,231.47305297851562 210.73350077867508,231.4937744140625 210.73551493883133,231.51353454589844 210.73749858140945,231.53424072265625 210.7404893040657,231.55398559570312 210.74351054430008,231.57470703125 210.74650126695633,231.59446716308594 210.74949198961258,231.61416625976562 210.75348979234695,231.63491821289062 210.75849467515945,231.6546630859375 210.76249247789383,231.67437744140625 210.76749736070633,231.6941680908203 210.77350932359695,231.7138671875 210.77851420640945,231.73361206054688 210.78449565172195,231.75238037109375 210.7915146946907,231.7720947265625 210.7974961400032,231.79086303710938 210.80451518297195,231.81060791015625 210.8125107884407,231.82937622070312 210.81949931383133,231.8480987548828 210.82749491930008,231.8668670654297 210.83649760484695,231.8856201171875 210.8444932103157,231.9043731689453 210.85349589586258,231.92214965820312 210.86350566148758,231.94090270996094 210.87250834703445,231.95867919921875 210.88248759508133,231.97640991210938 210.89350444078445,231.99417114257812 210.90351420640945,232.01097106933594 210.91450053453445,232.0287628173828 210.92548686265945,232.04551696777344 210.9375107884407,232.0623016357422 210.94950419664383,232.07908630371094 210.96149760484695,232.09585571289062 210.97349101305008,232.11166381835938 210.98649150133133,232.1284637451172 210.99949198961258,232.14422607421875 211.01249247789383,232.16000366210938 211.02549296617508,232.17483520507812 211.03950053453445,232.19061279296875 211.05350810289383,232.20541381835938 211.0684922337532,232.21922302246094 211.08249980211258,232.23403930664062 211.09751445055008,232.2478790283203 211.11249858140945,232.26266479492188 211.12751322984695,232.27548217773438 211.14350444078445,232.289306640625 211.15848857164383,232.30215454101562 211.17451030015945,232.3149871826172 211.19150859117508,232.3278350830078 211.20749980211258,232.33966064453125 211.2244980931282,232.3524932861328 211.24149638414383,232.36331176757812 211.25849467515945,232.37518310546875 211.27549296617508,232.3860626220703 211.2924912571907,232.3969268798828 211.31049662828445,232.40774536132812 211.3285019993782,232.41763305664062 211.34650737047195,232.42750549316406 211.3645127415657,232.43734741210938 211.38248759508133,232.44625854492188 211.4015000462532,232.4561309814453 211.41950541734695,232.46401977539062 211.4384873509407,232.47291564941406 211.45749980211258,232.48081970214844 211.47651225328445,232.48867797851562 211.4954941868782,232.49557495117188 211.5155137181282,232.50250244140625 211.53449565172195,232.5093994140625 211.55451518297195,232.51535034179688 211.57450419664383,232.52224731445312 211.59348613023758,232.52720642089844 211.61350566148758,232.5330810546875 211.63349467515945,232.53802490234375 211.65351420640945,232.54196166992188 211.67350322008133,232.54690551757812 211.69449931383133,232.55088806152344 211.7144883275032,232.55384826660156 211.7345078587532,232.55780029296875 211.7555039525032,232.56072998046875 211.77549296617508,232.56271362304688 211.79648905992508,232.565673828125 211.81650859117508,232.56668090820312 211.83750468492508,232.56863403320312 211.85749369859695,232.56961059570312 211.87848979234695,232.57061767578125 211.89850932359695,232.57061767578125 211.91950541734695,232.57061767578125 211.94050151109695,232.57061767578125 211.96049052476883,232.57061767578125 211.98148661851883,232.56961059570312 212.00150614976883,232.567626953125 212.02250224351883,232.56668090820312 212.0424912571907,232.56369018554688 212.0634873509407,232.56173706054688 212.0835068821907,232.55874633789062 212.1045029759407,232.5557861328125 212.12449198961258,232.5528564453125 212.14451152086258,232.5489044189453 212.16450053453445,232.54495239257812 212.18549662828445,232.54002380371094 212.20551615953445,232.53506469726562 212.22550517320633,232.53012084960938 212.24448710680008,232.52423095703125 212.26450663805008,232.518310546875 212.28449565172195,232.51235961914062 212.30350810289383,232.5064697265625 212.3234971165657,232.49954223632812 212.34250956773758,232.49163818359375 212.36149150133133,232.4847412109375 212.3805039525032,232.4768524169922 212.39951640367508,232.46897888183594 212.41849833726883,232.4600830078125 212.43650370836258,232.451171875 212.45551615953445,232.44229125976562 212.47349101305008,232.43243408203125 212.49149638414383,232.42254638671875 212.50950175523758,232.41268920898438 212.52750712633133,232.40280151367188 212.54450541734695,232.3919677734375 212.5625107884407,232.381103515625 212.57950907945633,232.36927795410156 212.59650737047195,232.35743713378906 212.61249858140945,232.3455810546875 212.62949687242508,232.33370971679688 212.64548808336258,232.32188415527344 212.6615098118782,232.30905151367188 212.6775010228157,232.2962188720703 212.6934922337532,232.28237915039062 212.7085068821907,232.26858520507812 212.7244980931282,232.2547607421875 212.73850566148758,232.24093627929688 212.75348979234695,232.22711181640625 212.76850444078445,232.2123260498047 212.78251200914383,232.197509765625 212.79648905992508,232.18272399902344 212.80948954820633,232.16693115234375 212.8234971165657,232.15211486816406 212.83649760484695,232.13632202148438 212.84849101305008,232.12051391601562 212.86149150133133,232.10372924804688 212.87351542711258,232.0879669189453 212.8855088353157,232.07118225097656 212.89750224351883,232.05442810058594 212.90848857164383,232.03762817382812 212.91950541734695,232.0198516845703 212.93049174547195,232.00308227539062 212.94050151109695,231.98529052734375 212.95051127672195,231.96754455566406 212.96049052476883,231.94981384277344 212.97050029039383,231.9310302734375 212.9795029759407,231.9132537841797 212.98850566148758,231.89450073242188 212.99650126695633,231.87673950195312 213.0055039525032,231.85797119140625 213.01249247789383,231.8392333984375 213.02048808336258,231.82046508789062 213.02750712633133,231.80075073242188 213.03449565172195,231.781982421875 213.04050761461258,231.76223754882812 213.0474961400032,231.74349975585938 213.0525010228157,231.7237548828125 213.05851298570633,231.70401000976562 213.0634873509407,231.68426513671875 213.0684922337532,231.66456604003906 213.07249003648758,231.644775390625 213.07648783922195,231.62506103515625 213.08051615953445,231.60433959960938 213.08451396226883,231.58456420898438 213.08750468492508,231.56484985351562 213.0894883275032,231.54409790039062 213.09250956773758,231.52438354492188 213.0944932103157,231.50363159179688 213.09550029039383,231.48388671875 213.09751445055008,231.46316528320312 213.09751445055008,231.44244384765625 213.09849101305008,231.42269897460938 " id="svg_5" fill-opacity="1" opacity="1" stroke-opacity="1"/>
	</g>
	<g id="POLYLINE_21_" fill="#ffffff" fill-opacity="1" opacity="1" stroke="#242424" stroke-opacity="1">
		
			<polygon fill="#ffffff" stroke="#242424" stroke-width="3" stroke-linecap="round" stroke-linejoin="round" stroke-miterlimit="10" points="213.06150370836258,-21.06688690185547 213.06049662828445,-21.08661651611328 213.06049662828445,-21.10735321044922 213.05948954820633,-21.128074645996094 213.05851298570633,-21.14781951904297 213.05649882555008,-21.168556213378906 213.05451518297195,-21.18927764892578 213.0525010228157,-21.209022521972656 213.04951030015945,-21.22974395751953 213.04648905992508,-21.249488830566406 213.04349833726883,-21.27021026611328 213.03950053453445,-21.289955139160156 213.03550273180008,-21.30970001220703 213.03049784898758,-21.330421447753906 213.02549296617508,-21.35016632080078 213.02048808336258,-21.369895935058594 213.0155137181282,-21.38964080810547 213.00950175523758,-21.409385681152344 213.00348979234695,-21.428138732910156 212.99650126695633,-21.44788360595703 212.9895127415657,-21.467613220214844 212.98249369859695,-21.48638153076172 212.9744980931282,-21.50511932373047 212.96750956773758,-21.52387237548828 212.9585068821907,-21.542625427246094 212.95051127672195,-21.561378479003906 212.94150859117508,-21.58013153076172 212.9325059056282,-21.59789276123047 212.9224961400032,-21.61664581298828 212.9124863743782,-21.634422302246094 212.90250712633133,-21.652198791503906 212.89249736070633,-21.669944763183594 212.88151103258133,-21.687721252441406 212.8704941868782,-21.704490661621094 212.85850077867508,-21.721275329589844 212.84751445055008,-21.738059997558594 212.83549052476883,-21.75482940673828 212.82249003648758,-21.77161407470703 212.81049662828445,-21.78740692138672 212.7974961400032,-21.80419158935547 212.78449565172195,-21.819984436035156 212.77048808336258,-21.83478546142578 212.75748759508133,-21.85057830810547 212.74351054430008,-21.865379333496094 212.72849589586258,-21.88018035888672 212.7144883275032,-21.894981384277344 212.69950419664383,-21.90979766845703 212.68448954820633,-21.923622131347656 212.66950541734695,-21.93743133544922 212.65449076890945,-21.951255798339844 212.63849955797195,-21.964088439941406 212.62250834703445,-21.97692108154297 212.60648661851883,-21.98975372314453 212.5894883275032,-22.002586364746094 212.5734971165657,-22.01441192626953 212.55649882555008,-22.026268005371094 212.53950053453445,-22.038108825683594 212.52250224351883,-22.049964904785156 212.50449687242508,-22.06079864501953 212.48749858140945,-22.07166290283203 212.4694932103157,-22.08153533935547 212.45148783922195,-22.091407775878906 212.43351298570633,-22.10126495361328 212.41450053453445,-22.11115264892578 212.3964951634407,-22.120033264160156 212.37751322984695,-22.12891387939453 212.35850077867508,-22.137794494628906 212.3394883275032,-22.14569854736328 212.32050639390945,-22.153587341308594 212.30149394273758,-22.16149139404297 212.28251200914383,-22.16840362548828 212.26249247789383,-22.175315856933594 212.24351054430008,-22.182212829589844 212.22349101305008,-22.188148498535156 212.2035019993782,-22.194053649902344 212.18351298570633,-22.199974060058594 212.16349345445633,-22.204917907714844 212.14350444078445,-22.20984649658203 212.12351542711258,-22.21379852294922 212.10248881578445,-22.218727111816406 212.08249980211258,-22.221702575683594 212.0625107884407,-22.22563934326172 212.0415146946907,-22.228614807128906 212.0214951634407,-22.23155975341797 212.0004990696907,-22.23352813720703 211.98051005601883,-22.235511779785156 211.95951396226883,-22.23748016357422 211.9384873509407,-22.23847198486328 211.91849833726883,-22.23944854736328 211.89750224351883,-22.240440368652344 211.87650614976883,-22.240440368652344 211.85551005601883,-22.240440368652344 211.83549052476883,-22.240440368652344 211.81449443101883,-22.23944854736328 211.79349833726883,-22.23847198486328 211.77350932359695,-22.23650360107422 211.75251322984695,-22.234535217285156 211.73249369859695,-22.23255157470703 211.71149760484695,-22.229591369628906 211.69150859117508,-22.227622985839844 211.67051249742508,-22.223670959472656 211.65049296617508,-22.22069549560547 211.62949687242508,-22.216758728027344 211.6095078587532,-22.211814880371094 211.5894883275032,-22.206886291503906 211.56949931383133,-22.20195770263672 211.54951030015945,-22.19701385498047 211.52949076890945,-22.19109344482422 211.50950175523758,-22.18517303466797 211.4904893040657,-22.17925262451172 211.47050029039383,-22.172340393066406 211.45148783922195,-22.165428161621094 211.43149882555008,-22.15753936767578 211.4124863743782,-22.14965057373047 211.39350444078445,-22.141746520996094 211.37449198961258,-22.13384246826172 211.35648661851883,-22.124961853027344 211.33750468492508,-22.11608123779297 211.31949931383133,-22.10620880126953 211.30048686265945,-22.096351623535156 211.28251200914383,-22.086463928222656 211.26450663805008,-22.07660675048828 211.24750834703445,-22.06574249267578 211.2295029759407,-22.05487823486328 211.21250468492508,-22.044029235839844 211.19550639390945,-22.032188415527344 211.17850810289383,-22.02033233642578 211.1615098118782,-22.00849151611328 211.14451152086258,-21.996665954589844 211.12848979234695,-21.98383331298828 211.11249858140945,-21.97100067138672 211.09650737047195,-21.957176208496094 211.08149272203445,-21.94434356689453 211.06550151109695,-21.93053436279297 211.05048686265945,-21.916709899902344 211.03550273180008,-21.901893615722656 211.0214951634407,-21.888084411621094 211.00651103258133,-21.87328338623047 210.99250346422195,-21.858482360839844 210.97849589586258,-21.842674255371094 210.96549540758133,-21.82787322998047 210.95249491930008,-21.81208038330078 210.93949443101883,-21.796287536621094 210.92649394273758,-21.779518127441406 210.91450053453445,-21.763710021972656 210.9015000462532,-21.74694061279297 210.8905137181282,-21.73015594482422 210.87848979234695,-21.71338653564453 210.86750346422195,-21.69561004638672 210.85648661851883,-21.67884063720703 210.84550029039383,-21.66106414794922 210.83549052476883,-21.64330291748047 210.82551127672195,-21.62554168701172 210.81550151109695,-21.607765197753906 210.80649882555008,-21.589012145996094 210.7974961400032,-21.571250915527344 210.78849345445633,-21.55249786376953 210.78049784898758,-21.53374481201172 210.77250224351883,-21.514991760253906 210.76450663805008,-21.496238708496094 210.75651103258133,-21.47649383544922 210.74949198961258,-21.457740783691406 210.74351054430008,-21.43799591064453 210.73649150133133,-21.41826629638672 210.73051005601883,-21.399497985839844 210.7244980931282,-21.37976837158203 210.7194932103157,-21.360023498535156 210.7144883275032,-21.34027862548828 210.70951396226883,-21.32054901123047 210.70551615953445,-21.29981231689453 210.70148783922195,-21.280067443847656 210.6984971165657,-21.260337829589844 210.69449931383133,-21.23961639404297 210.6925156712532,-21.219871520996094 210.68949443101883,-21.19915008544922 210.6875107884407,-21.17841339111328 210.68549662828445,-21.15868377685547 210.68448954820633,-21.13794708251953 210.68351298570633,-21.117225646972656 210.6825059056282,-21.09748077392578 210.68149882555008,-21.076759338378906 210.68149882555008,-21.05603790283203 210.6825059056282,-21.036293029785156 210.68351298570633,-21.01555633544922 210.68448954820633,-20.994834899902344 210.68549662828445,-20.97509002685547 210.6875107884407,-20.954368591308594 210.68949443101883,-20.933631896972656 210.6925156712532,-20.913902282714844 210.69449931383133,-20.893165588378906 210.6984971165657,-20.873435974121094 210.70148783922195,-20.85369110107422 210.70551615953445,-20.832969665527344 210.70951396226883,-20.81322479248047 210.7144883275032,-20.793479919433594 210.7194932103157,-20.77375030517578 210.7244980931282,-20.754005432128906 210.73051005601883,-20.73426055908203 210.73649150133133,-20.714515686035156 210.74351054430008,-20.694786071777344 210.74949198961258,-20.67601776123047 210.75651103258133,-20.656288146972656 210.76450663805008,-20.637535095214844 210.77250224351883,-20.61876678466797 210.78049784898758,-20.60002899169922 210.78849345445633,-20.581275939941406 210.7974961400032,-20.562522888183594 210.80649882555008,-20.54376983642578 210.81550151109695,-20.52599334716797 210.82551127672195,-20.50823211669922 210.83549052476883,-20.489479064941406 210.84550029039383,-20.471717834472656 210.85648661851883,-20.454933166503906 210.86750346422195,-20.437171936035156 210.87848979234695,-20.42040252685547 210.8905137181282,-20.40361785888672 210.9015000462532,-20.386817932128906 210.91450053453445,-20.37004852294922 210.92649394273758,-20.35326385498047 210.93949443101883,-20.337486267089844 210.95249491930008,-20.321693420410156 210.96549540758133,-20.305885314941406 210.97849589586258,-20.29010772705078 210.99250346422195,-20.275306701660156 211.00651103258133,-20.26049041748047 211.0214951634407,-20.245689392089844 211.03550273180008,-20.23088836669922 211.05048686265945,-20.217063903808594 211.06550151109695,-20.20325469970703 211.08149272203445,-20.189430236816406 211.09650737047195,-20.175621032714844 211.11249858140945,-20.16278839111328 211.12848979234695,-20.14995574951172 211.14451152086258,-20.137123107910156 211.1615098118782,-20.124290466308594 211.17850810289383,-20.11243438720703 211.19550639390945,-20.10059356689453 211.21250468492508,-20.089744567871094 211.2295029759407,-20.077903747558594 211.24750834703445,-20.067039489746094 211.26450663805008,-20.057167053222656 211.28251200914383,-20.046302795410156 211.30048686265945,-20.03644561767578 211.31949931383133,-20.026573181152344 211.33750468492508,-20.01769256591797 211.35648661851883,-20.00879669189453 211.37449198961258,-19.999916076660156 211.39350444078445,-19.99103546142578 211.4124863743782,-19.983131408691406 211.43149882555008,-19.975242614746094 211.45148783922195,-19.96833038330078 211.47050029039383,-19.96141815185547 211.4904893040657,-19.95452117919922 211.50950175523758,-19.947608947753906 211.52949076890945,-19.941688537597656 211.54951030015945,-19.936744689941406 211.56949931383133,-19.93083953857422 211.5894883275032,-19.92589569091797 211.6095078587532,-19.92095184326172 211.62949687242508,-19.91699981689453 211.65049296617508,-19.913063049316406 211.67051249742508,-19.90911102294922 211.69150859117508,-19.906150817871094 211.71149760484695,-19.90319061279297 211.73249369859695,-19.900230407714844 211.75251322984695,-19.89826202392578 211.77350932359695,-19.896278381347656 211.79349833726883,-19.895286560058594 211.81449443101883,-19.894309997558594 211.83549052476883,-19.89331817626953 211.85551005601883,-19.89234161376953 211.87650614976883,-19.89234161376953 211.89750224351883,-19.89234161376953 211.91849833726883,-19.89331817626953 211.9384873509407,-19.894309997558594 211.95951396226883,-19.895286560058594 211.98051005601883,-19.89727020263672 212.0004990696907,-19.899253845214844 212.0214951634407,-19.902198791503906 212.0415146946907,-19.90418243408203 212.0625107884407,-19.908119201660156 212.08249980211258,-19.911094665527344 212.10248881578445,-19.91503143310547 212.12351542711258,-19.918983459472656 212.14350444078445,-19.923927307128906 212.16349345445633,-19.928855895996094 212.18351298570633,-19.93378448486328 212.2035019993782,-19.93872833251953 212.22349101305008,-19.94464874267578 212.24351054430008,-19.951560974121094 212.26249247789383,-19.957481384277344 212.28251200914383,-19.964393615722656 212.30149394273758,-19.97228240966797 212.32050639390945,-19.97919464111328 212.3394883275032,-19.987083435058594 212.35850077867508,-19.99596405029297 212.37751322984695,-20.003868103027344 212.3964951634407,-20.01274871826172 212.41450053453445,-20.021629333496094 212.43351298570633,-20.03150177001953 212.45148783922195,-20.04137420654297 212.4694932103157,-20.051246643066406 212.48749858140945,-20.062095642089844 212.50449687242508,-20.072959899902344 212.52250224351883,-20.083824157714844 212.53950053453445,-20.09467315673828 212.55649882555008,-20.10651397705078 212.5734971165657,-20.118370056152344 212.5894883275032,-20.131202697753906 212.60648661851883,-20.143043518066406 212.62250834703445,-20.15587615966797 212.63849955797195,-20.16870880126953 212.65449076890945,-20.182518005371094 212.66950541734695,-20.19634246826172 212.68448954820633,-20.21015167236328 212.69950419664383,-20.223976135253906 212.7144883275032,-20.23778533935547 212.72849589586258,-20.252601623535156 212.74351054430008,-20.26740264892578 212.75748759508133,-20.28319549560547 212.77048808336258,-20.297996520996094 212.78449565172195,-20.31378936767578 212.7974961400032,-20.32958221435547 212.81049662828445,-20.345375061035156 212.82249003648758,-20.362159729003906 212.83549052476883,-20.377952575683594 212.84751445055008,-20.394737243652344 212.85850077867508,-20.41150665283203 212.8704941868782,-20.42829132080078 212.88151103258133,-20.44605255126953 212.89249736070633,-20.46381378173828 212.90250712633133,-20.48059844970703 212.9124863743782,-20.49835968017578 212.9224961400032,-20.517112731933594 212.9325059056282,-20.534889221191406 212.94150859117508,-20.55364227294922 212.95051127672195,-20.57140350341797 212.9585068821907,-20.59015655517578 212.96750956773758,-20.608909606933594 212.9744980931282,-20.627662658691406 212.98249369859695,-20.64740753173828 212.9895127415657,-20.666160583496094 212.99650126695633,-20.684898376464844 213.00348979234695,-20.70464324951172 213.00950175523758,-20.724388122558594 213.0155137181282,-20.744117736816406 213.02048808336258,-20.76386260986328 213.02549296617508,-20.783607482910156 213.03049784898758,-20.80335235595703 213.03550273180008,-20.823081970214844 213.03950053453445,-20.84282684326172 213.04349833726883,-20.863548278808594 213.04648905992508,-20.88329315185547 213.04951030015945,-20.904029846191406 213.0525010228157,-20.92377471923828 213.05451518297195,-20.944496154785156 213.05649882555008,-20.96424102783203 213.05851298570633,-20.984962463378906 213.05948954820633,-21.00568389892578 213.06049662828445,-21.025428771972656 213.06049662828445,-21.04615020751953 " id="svg_6" fill-opacity="1" opacity="1" stroke-opacity="1"/>
	</g>
</g><g id="AG-DIAGRAM" class="selected" fill="#000000" fill-opacity="1" stroke="#242424" stroke-opacity="1">
	<g id="POLYLINE_2_" fill="#000000" fill-opacity="1" stroke="#242424" stroke-opacity="1">
		<g id="svg_7" fill="#000000" fill-opacity="1" stroke="#242424" stroke-opacity="1">
			<g id="svg_8" fill="#000000" fill-opacity="1" stroke="#242424" stroke-opacity="1">
				<polyline fill="#000000" stroke="#242424" stroke-width="3" stroke-linecap="round" stroke-linejoin="round" points="-67.30483561754227,277.4429016113281 -67.30483561754227,279.4429016113281 -65.30483561754227,279.4429016113281 " id="svg_9" fill-opacity="1" stroke-opacity="1"/>
				
					<line fill="none" stroke="#242424" stroke-width="3" stroke-linecap="round" stroke-linejoin="round" stroke-dasharray="3.989,6.9808" x1="-58.32383346557617" y1="279.4429016113281" x2="486.6741943359375" y2="279.4429016113281" id="svg_10"/>
				<polyline fill="#000000" stroke="#242424" stroke-width="3" stroke-linecap="round" stroke-linejoin="round" points="490.16516560316086,279.4429016113281 492.16516560316086,279.4429016113281 492.16516560316086,277.4429016113281 " id="svg_11" fill-opacity="1" stroke-opacity="1"/>
				
					<line fill="none" stroke="#242424" stroke-width="3" stroke-linecap="round" stroke-linejoin="round" stroke-dasharray="3.9732,6.9531" x1="492.1651611328125" y1="270.4898986816406" x2="492.1651611328125" y2="-64.74907684326172" id="svg_12"/>
				<polyline fill="#000000" stroke="#242424" stroke-width="3" stroke-linecap="round" stroke-linejoin="round" points="492.16516560316086,-68.2250747680664 492.16516560316086,-70.2250747680664 490.16516560316086,-70.2250747680664 " id="svg_13" fill-opacity="1" stroke-opacity="1"/>
				
					<line fill="none" stroke="#242424" stroke-width="3" stroke-linecap="round" stroke-linejoin="round" stroke-dasharray="3.989,6.9808" x1="483.1842041015625" y1="-70.2250747680664" x2="-61.813838958740234" y2="-70.2250747680664" id="svg_14"/>
				<polyline fill="#000000" stroke="#242424" stroke-width="3" stroke-linecap="round" stroke-linejoin="round" points="-65.30483561754227,-70.2250747680664 -67.30483561754227,-70.2250747680664 -67.30483561754227,-68.2250747680664 " id="svg_15" fill-opacity="1" stroke-opacity="1"/>
				
					<line fill="none" stroke="#242424" stroke-width="3" stroke-linecap="round" stroke-linejoin="round" stroke-dasharray="3.9732,6.9531" x1="-67.3048324584961" y1="-61.272071838378906" x2="-67.3048324584961" y2="273.9668884277344" id="svg_16"/>
			</g>
		</g>
	</g>
	<g id="POLYLINE_1_" fill="#000000" fill-opacity="1" stroke="#242424" stroke-opacity="1">
		
			<line fill="none" stroke="#242424" stroke-width="3" stroke-linecap="round" stroke-linejoin="round" stroke-miterlimit="10" x1="212.43016052246094" y1="231.3209228515625" x2="212.43016052246094" y2="-22.09607696533203" id="svg_17"/>
	</g>
</g><g id="AG-OUTLINE" class="">
</g><rect fill="" stroke-dashoffset="" fill-rule="nonzero" id="svg_18" x="538.8715209960938" y="254.60891723632812" width="0" height="1" style="color: rgb(0, 0, 0);" class=""/></g></svg>